<svg xmlns="http://www.w3.org/2000/svg" width="1200" height="630" viewBox="0 0 1200 630">
  <defs>
    <linearGradient id="ground" x1="0" y1="0" x2="0.35" y2="1">
      <stop offset="0" stop-color="#17150F"/>
      <stop offset="1" stop-color="#100E0C"/>
    </linearGradient>
    <radialGradient id="lamp" cx="0.76" cy="0.46" r="0.46">
      <stop offset="0" stop-color="#FF9A4D" stop-opacity="0.26"/>
      <stop offset="0.55" stop-color="#FF9A4D" stop-opacity="0.07"/>
      <stop offset="1" stop-color="#FF9A4D" stop-opacity="0"/>
    </radialGradient>
    <linearGradient id="stone" x1="0" y1="0" x2="0.3" y2="1">
      <stop offset="0" stop-color="#9A8F7F"/>
      <stop offset="1" stop-color="#514839"/>
    </linearGradient>
    <radialGradient id="pool" cx="0.5" cy="0.5" r="0.5">
      <stop offset="0" stop-color="#FF9A4D" stop-opacity="0.22"/>
      <stop offset="1" stop-color="#FF9A4D" stop-opacity="0"/>
    </radialGradient>
  </defs>

  <rect width="1200" height="630" fill="url(#ground)"/>
  <rect width="1200" height="630" fill="url(#lamp)"/>

  <!-- drawing-sheet rails -->
  <g stroke="#F3EFE6" stroke-opacity="0.07" stroke-width="1" stroke-dasharray="10 12">
    <path d="M56 0V630M1144 0V630"/>
  </g>

  <!-- wordmark -->
  <g transform="translate(96 92)">
    <path d="M4 0h26a4 4 0 0 1 4 4v22.6a4.4 4.4 0 0 1-2.3 3.9L20.1 36.6a4.3 4.3 0 0 1-4.2 0L4.3 30.5A4.4 4.4 0 0 1 2 26.6V4a4 4 0 0 1 4-4Z"
          fill="#2A251F" stroke="#5A5147" stroke-width="1.6" transform="translate(-2 0)"/>
    <path d="M0 17.6h11l7 5 7-5h11" stroke="#100E0C" stroke-width="1.8" fill="none" stroke-linejoin="round"/>
    <rect x="5.6" y="22.6" width="7.6" height="4" rx="1.4" fill="#FF9A4D"/>
    <rect x="22.8" y="22.6" width="7.6" height="4" rx="1.4" fill="#FF9A4D"/>
    <text x="56" y="30" font-family="Georgia, 'Iowan Old Style', serif" font-size="30" font-weight="600" fill="#F3EFE6" letter-spacing="-0.6">Golem</text>
  </g>

  <!-- headline -->
  <text x="96" y="272" font-family="Georgia, 'Iowan Old Style', serif" font-size="88" font-weight="700" fill="#F3EFE6" letter-spacing="-3">Describe it.</text>
  <text x="96" y="372" font-family="Georgia, 'Iowan Old Style', serif" font-size="88" font-weight="700" fill="#FF9A4D" letter-spacing="-3">Golem builds it.</text>

  <text x="96" y="436" font-family="Helvetica, Arial, sans-serif" font-size="26" fill="#A89F90">The AI builder for Roblox Studio — real scripts, real</text>
  <text x="96" y="472" font-family="Helvetica, Arial, sans-serif" font-size="26" fill="#A89F90">instances, native undo, verified by running your game.</text>

  <text x="96" y="546" font-family="ui-monospace, Menlo, monospace" font-size="19" fill="#7F7869" letter-spacing="1.4">60 FREE SPARKS A DAY  ·  NO CARD, EVER</text>

  <!-- the golem, on its plinth -->
  <g transform="translate(830 130) scale(1.28)">
    <ellipse cx="120" cy="292" rx="126" ry="34" fill="url(#pool)"/>
    <ellipse cx="120" cy="292" rx="92" ry="22" fill="#2C2721"/>
    <ellipse cx="120" cy="286" rx="92" ry="22" fill="#3A342C"/>
    <ellipse cx="120" cy="286" rx="92" ry="22" fill="none" stroke="#FF9A4D" stroke-opacity="0.55" stroke-width="1.6"/>

    <g fill="url(#stone)" stroke="#5A5147" stroke-width="1.5" stroke-linejoin="round">
      <rect x="70" y="238" width="38" height="40" rx="7"/>
      <rect x="132" y="238" width="38" height="40" rx="7"/>
      <rect x="68" y="192" width="44" height="50" rx="8"/>
      <rect x="128" y="192" width="44" height="50" rx="8"/>
      <rect x="66" y="160" width="108" height="38" rx="9"/>
      <rect x="62" y="114" width="116" height="50" rx="10"/>
      <rect x="56" y="74" width="128" height="44" rx="11"/>
      <rect x="20" y="78" width="40" height="42" rx="9"/>
      <rect x="180" y="78" width="40" height="42" rx="9"/>
      <rect x="24" y="122" width="34" height="46" rx="8"/>
      <rect x="182" y="122" width="34" height="46" rx="8"/>
      <rect x="18" y="170" width="42" height="38" rx="9"/>
      <rect x="180" y="170" width="42" height="38" rx="9"/>
      <rect x="98" y="60" width="44" height="16" rx="5"/>
      <rect x="78" y="8" width="84" height="56" rx="12"/>
    </g>

    <path d="M78 32h28l14 10 14-10h28" stroke="#17150F" stroke-width="1.6" fill="none" stroke-linejoin="round"/>
    <rect x="94" y="38" width="19" height="8" rx="3" fill="#FF9A4D"/>
    <rect x="127" y="38" width="19" height="8" rx="3" fill="#FF9A4D"/>
    <rect x="106" y="128" width="28" height="28" rx="6" fill="#FFB877"/>
  </g>
</svg>
