<svg xmlns="http://www.w3.org/2000/svg" width="1600" height="900" viewBox="0 0 1600 900" font-family="'Helvetica Neue',Arial,sans-serif">
<rect width="1600" height="900" fill="#0d0f12"/>
<line x1="406.4" y1="40.0" x2="406.4" y2="860.0" stroke="#1b1f26" stroke-width="1"/>
<line x1="450.1" y1="40.0" x2="450.1" y2="860.0" stroke="#1b1f26" stroke-width="1"/>
<line x1="493.9" y1="40.0" x2="493.9" y2="860.0" stroke="#1b1f26" stroke-width="1"/>
<line x1="537.6" y1="40.0" x2="537.6" y2="860.0" stroke="#1b1f26" stroke-width="1"/>
<line x1="581.3" y1="40.0" x2="581.3" y2="860.0" stroke="#1b1f26" stroke-width="1"/>
<line x1="625.1" y1="40.0" x2="625.1" y2="860.0" stroke="#1b1f26" stroke-width="1"/>
<line x1="668.8" y1="40.0" x2="668.8" y2="860.0" stroke="#1b1f26" stroke-width="1"/>
<line x1="712.5" y1="40.0" x2="712.5" y2="860.0" stroke="#1b1f26" stroke-width="1"/>
<line x1="756.3" y1="40.0" x2="756.3" y2="860.0" stroke="#1b1f26" stroke-width="1"/>
<line x1="800.0" y1="40.0" x2="800.0" y2="860.0" stroke="#1b1f26" stroke-width="1"/>
<line x1="843.7" y1="40.0" x2="843.7" y2="860.0" stroke="#1b1f26" stroke-width="1"/>
<line x1="887.5" y1="40.0" x2="887.5" y2="860.0" stroke="#1b1f26" stroke-width="1"/>
<line x1="931.2" y1="40.0" x2="931.2" y2="860.0" stroke="#1b1f26" stroke-width="1"/>
<line x1="974.9" y1="40.0" x2="974.9" y2="860.0" stroke="#1b1f26" stroke-width="1"/>
<line x1="1018.7" y1="40.0" x2="1018.7" y2="860.0" stroke="#1b1f26" stroke-width="1"/>
<line x1="1062.4" y1="40.0" x2="1062.4" y2="860.0" stroke="#1b1f26" stroke-width="1"/>
<line x1="1106.1" y1="40.0" x2="1106.1" y2="860.0" stroke="#1b1f26" stroke-width="1"/>
<line x1="1149.9" y1="40.0" x2="1149.9" y2="860.0" stroke="#1b1f26" stroke-width="1"/>
<line x1="1193.6" y1="40.0" x2="1193.6" y2="860.0" stroke="#1b1f26" stroke-width="1"/>
<line x1="390.0" y1="56.4" x2="1210.0" y2="56.4" stroke="#1b1f26" stroke-width="1"/>
<line x1="390.0" y1="100.1" x2="1210.0" y2="100.1" stroke="#1b1f26" stroke-width="1"/>
<line x1="390.0" y1="143.9" x2="1210.0" y2="143.9" stroke="#1b1f26" stroke-width="1"/>
<line x1="390.0" y1="187.6" x2="1210.0" y2="187.6" stroke="#1b1f26" stroke-width="1"/>
<line x1="390.0" y1="231.3" x2="1210.0" y2="231.3" stroke="#1b1f26" stroke-width="1"/>
<line x1="390.0" y1="275.1" x2="1210.0" y2="275.1" stroke="#1b1f26" stroke-width="1"/>
<line x1="390.0" y1="318.8" x2="1210.0" y2="318.8" stroke="#1b1f26" stroke-width="1"/>
<line x1="390.0" y1="362.5" x2="1210.0" y2="362.5" stroke="#1b1f26" stroke-width="1"/>
<line x1="390.0" y1="406.3" x2="1210.0" y2="406.3" stroke="#1b1f26" stroke-width="1"/>
<line x1="390.0" y1="450.0" x2="1210.0" y2="450.0" stroke="#1b1f26" stroke-width="1"/>
<line x1="390.0" y1="493.7" x2="1210.0" y2="493.7" stroke="#1b1f26" stroke-width="1"/>
<line x1="390.0" y1="537.5" x2="1210.0" y2="537.5" stroke="#1b1f26" stroke-width="1"/>
<line x1="390.0" y1="581.2" x2="1210.0" y2="581.2" stroke="#1b1f26" stroke-width="1"/>
<line x1="390.0" y1="624.9" x2="1210.0" y2="624.9" stroke="#1b1f26" stroke-width="1"/>
<line x1="390.0" y1="668.7" x2="1210.0" y2="668.7" stroke="#1b1f26" stroke-width="1"/>
<line x1="390.0" y1="712.4" x2="1210.0" y2="712.4" stroke="#1b1f26" stroke-width="1"/>
<line x1="390.0" y1="756.1" x2="1210.0" y2="756.1" stroke="#1b1f26" stroke-width="1"/>
<line x1="390.0" y1="799.9" x2="1210.0" y2="799.9" stroke="#1b1f26" stroke-width="1"/>
<line x1="390.0" y1="843.6" x2="1210.0" y2="843.6" stroke="#1b1f26" stroke-width="1"/>
<rect x="390.0" y="40.0" width="820.0" height="820.0" fill="rgb(96,140,70)" fill-opacity="0.92" stroke="#ffffff" stroke-opacity="0.08" stroke-width="1"/>
<rect x="677.0" y="327.0" width="246.0" height="246.0" fill="rgb(110,155,78)" fill-opacity="0.92" stroke="#ffffff" stroke-opacity="0.12" stroke-width="1"/>
<rect x="554.0" y="734.3" width="492.0" height="32.8" fill="rgb(55,55,60)" fill-opacity="0.92" stroke="#ffffff" stroke-opacity="0.12" stroke-width="1"/>
<rect x="554.0" y="132.9" width="492.0" height="32.8" fill="rgb(55,55,60)" fill-opacity="0.92" stroke="#ffffff" stroke-opacity="0.12" stroke-width="1"/>
<rect x="1015.9" y="313.3" width="32.8" height="273.3" fill="rgb(55,55,60)" fill-opacity="0.92" stroke="#ffffff" stroke-opacity="0.12" stroke-width="1"/>
<rect x="551.3" y="313.3" width="32.8" height="273.3" fill="rgb(55,55,60)" fill-opacity="0.92" stroke="#ffffff" stroke-opacity="0.12" stroke-width="1"/>
<rect x="1002.3" y="119.3" width="60.1" height="60.1" fill="rgb(55,55,60)" fill-opacity="0.92" stroke="#ffffff" stroke-opacity="0.12" stroke-width="1"/>
<rect x="537.6" y="119.3" width="60.1" height="60.1" fill="rgb(55,55,60)" fill-opacity="0.92" stroke="#ffffff" stroke-opacity="0.12" stroke-width="1"/>
<rect x="1002.3" y="720.6" width="60.1" height="60.1" fill="rgb(55,55,60)" fill-opacity="0.92" stroke="#ffffff" stroke-opacity="0.12" stroke-width="1"/>
<rect x="537.6" y="720.6" width="60.1" height="60.1" fill="rgb(55,55,60)" fill-opacity="0.92" stroke="#ffffff" stroke-opacity="0.12" stroke-width="1"/>
<rect x="663.3" y="782.1" width="273.3" height="19.1" fill="rgb(70,70,75)" fill-opacity="0.92" stroke="#ffffff" stroke-opacity="0.12" stroke-width="1"/>
<rect x="927.1" y="753.4" width="19.1" height="41.0" fill="rgb(70,70,75)" fill-opacity="0.92" stroke="#ffffff" stroke-opacity="0.12" stroke-width="1"/>
<rect x="653.8" y="753.4" width="19.1" height="41.0" fill="rgb(70,70,75)" fill-opacity="0.92" stroke="#ffffff" stroke-opacity="0.12" stroke-width="1"/>
<rect x="499.3" y="581.2" width="82.0" height="10.9" fill="rgb(160,160,160)" fill-opacity="0.92" stroke="#ffffff" stroke-opacity="0.12" stroke-width="1"/>
<rect x="431.0" y="500.6" width="109.3" height="8.2" fill="rgb(70,90,160)" fill-opacity="0.92" stroke="#ffffff" stroke-opacity="0.13" stroke-width="1"/>
<rect x="1028.2" y="172.6" width="8.2" height="8.2" fill="rgb(30,30,30)" fill-opacity="0.92" stroke="#ffffff" stroke-opacity="0.13" stroke-width="1"/>
<rect x="563.6" y="172.6" width="8.2" height="8.2" fill="rgb(30,30,30)" fill-opacity="0.92" stroke="#ffffff" stroke-opacity="0.13" stroke-width="1"/>
<rect x="1028.2" y="719.2" width="8.2" height="8.2" fill="rgb(30,30,30)" fill-opacity="0.92" stroke="#ffffff" stroke-opacity="0.13" stroke-width="1"/>
<rect x="563.6" y="719.2" width="8.2" height="8.2" fill="rgb(30,30,30)" fill-opacity="0.92" stroke="#ffffff" stroke-opacity="0.13" stroke-width="1"/>
<rect x="575.9" y="749.8" width="10.9" height="1.6" fill="rgb(240,240,240)" fill-opacity="0.92" stroke="#ffffff" stroke-opacity="0.13" stroke-width="1"/>
<rect x="603.2" y="749.8" width="10.9" height="1.6" fill="rgb(240,240,240)" fill-opacity="0.92" stroke="#ffffff" stroke-opacity="0.13" stroke-width="1"/>
<rect x="630.5" y="749.8" width="10.9" height="1.6" fill="rgb(240,240,240)" fill-opacity="0.92" stroke="#ffffff" stroke-opacity="0.13" stroke-width="1"/>
<rect x="657.9" y="749.8" width="10.9" height="1.6" fill="rgb(240,240,240)" fill-opacity="0.92" stroke="#ffffff" stroke-opacity="0.13" stroke-width="1"/>
<rect x="685.2" y="749.8" width="10.9" height="1.6" fill="rgb(240,240,240)" fill-opacity="0.92" stroke="#ffffff" stroke-opacity="0.13" stroke-width="1"/>
<rect x="712.5" y="749.8" width="10.9" height="1.6" fill="rgb(240,240,240)" fill-opacity="0.92" stroke="#ffffff" stroke-opacity="0.13" stroke-width="1"/>
<rect x="739.9" y="749.8" width="10.9" height="1.6" fill="rgb(240,240,240)" fill-opacity="0.92" stroke="#ffffff" stroke-opacity="0.13" stroke-width="1"/>
<rect x="767.2" y="749.8" width="10.9" height="1.6" fill="rgb(240,240,240)" fill-opacity="0.92" stroke="#ffffff" stroke-opacity="0.13" stroke-width="1"/>
<rect x="794.5" y="749.8" width="10.9" height="1.6" fill="rgb(240,240,240)" fill-opacity="0.92" stroke="#ffffff" stroke-opacity="0.13" stroke-width="1"/>
<rect x="821.9" y="749.8" width="10.9" height="1.6" fill="rgb(240,240,240)" fill-opacity="0.92" stroke="#ffffff" stroke-opacity="0.13" stroke-width="1"/>
<rect x="849.2" y="749.8" width="10.9" height="1.6" fill="rgb(240,240,240)" fill-opacity="0.92" stroke="#ffffff" stroke-opacity="0.13" stroke-width="1"/>
<rect x="876.5" y="749.8" width="10.9" height="1.6" fill="rgb(240,240,240)" fill-opacity="0.92" stroke="#ffffff" stroke-opacity="0.13" stroke-width="1"/>
<rect x="903.9" y="749.8" width="10.9" height="1.6" fill="rgb(240,240,240)" fill-opacity="0.92" stroke="#ffffff" stroke-opacity="0.13" stroke-width="1"/>
<rect x="931.2" y="749.8" width="10.9" height="1.6" fill="rgb(240,240,240)" fill-opacity="0.92" stroke="#ffffff" stroke-opacity="0.13" stroke-width="1"/>
<rect x="958.5" y="749.8" width="10.9" height="1.6" fill="rgb(240,240,240)" fill-opacity="0.92" stroke="#ffffff" stroke-opacity="0.13" stroke-width="1"/>
<rect x="985.9" y="749.8" width="10.9" height="1.6" fill="rgb(240,240,240)" fill-opacity="0.92" stroke="#ffffff" stroke-opacity="0.13" stroke-width="1"/>
<rect x="1013.2" y="749.8" width="10.9" height="1.6" fill="rgb(240,240,240)" fill-opacity="0.92" stroke="#ffffff" stroke-opacity="0.13" stroke-width="1"/>
<rect x="686.6" y="787.6" width="8.2" height="8.2" fill="rgb(255,200,40)" fill-opacity="0.92" stroke="#ffffff" stroke-opacity="0.13" stroke-width="1"/>
<rect x="741.2" y="787.6" width="8.2" height="8.2" fill="rgb(255,200,40)" fill-opacity="0.92" stroke="#ffffff" stroke-opacity="0.13" stroke-width="1"/>
<rect x="795.9" y="787.6" width="8.2" height="8.2" fill="rgb(255,200,40)" fill-opacity="0.92" stroke="#ffffff" stroke-opacity="0.13" stroke-width="1"/>
<rect x="850.6" y="787.6" width="8.2" height="8.2" fill="rgb(255,200,40)" fill-opacity="0.92" stroke="#ffffff" stroke-opacity="0.13" stroke-width="1"/>
<rect x="905.2" y="787.6" width="8.2" height="8.2" fill="rgb(255,200,40)" fill-opacity="0.92" stroke="#ffffff" stroke-opacity="0.13" stroke-width="1"/>
<rect x="783.6" y="746.6" width="32.8" height="8.2" fill="rgb(255,255,255)" fill-opacity="0.92" stroke="#ffffff" stroke-opacity="0.13" stroke-width="1"/>
<rect x="783.6" y="748.6" width="4.1" height="4.1" fill="rgb(20,20,20)" fill-opacity="0.92" stroke="#ffffff" stroke-opacity="0.13" stroke-width="1"/>
<rect x="787.7" y="748.6" width="4.1" height="4.1" fill="rgb(255,255,255)" fill-opacity="0.92" stroke="#ffffff" stroke-opacity="0.13" stroke-width="1"/>
<rect x="791.8" y="748.6" width="4.1" height="4.1" fill="rgb(20,20,20)" fill-opacity="0.92" stroke="#ffffff" stroke-opacity="0.13" stroke-width="1"/>
<rect x="795.9" y="748.6" width="4.1" height="4.1" fill="rgb(255,255,255)" fill-opacity="0.92" stroke="#ffffff" stroke-opacity="0.13" stroke-width="1"/>
<rect x="800.0" y="748.6" width="4.1" height="4.1" fill="rgb(20,20,20)" fill-opacity="0.92" stroke="#ffffff" stroke-opacity="0.13" stroke-width="1"/>
<rect x="804.1" y="748.6" width="4.1" height="4.1" fill="rgb(255,255,255)" fill-opacity="0.92" stroke="#ffffff" stroke-opacity="0.13" stroke-width="1"/>
<rect x="808.2" y="748.6" width="4.1" height="4.1" fill="rgb(20,20,20)" fill-opacity="0.92" stroke="#ffffff" stroke-opacity="0.13" stroke-width="1"/>
<rect x="812.3" y="748.6" width="4.1" height="4.1" fill="rgb(255,255,255)" fill-opacity="0.92" stroke="#ffffff" stroke-opacity="0.13" stroke-width="1"/>
<rect x="794.5" y="761.6" width="10.9" height="10.9" fill="rgb(90,170,255)" fill-opacity="0.92" stroke="#ffffff" stroke-opacity="0.14" stroke-width="1"/>
<circle cx="800.0" cy="767.1" r="7" fill="none" stroke="#5ee08a" stroke-width="2.5"/>
<text x="800.0" y="755.1" text-anchor="middle" font-size="11" fill="#5ee08a">SPAWN</text>
<rect x="567.7" y="730.2" width="464.7" height="2.7" fill="rgb(200,50,50)" fill-opacity="0.92" stroke="#ffffff" stroke-opacity="0.14" stroke-width="1"/>
<rect x="567.7" y="167.1" width="464.7" height="2.7" fill="rgb(200,50,50)" fill-opacity="0.92" stroke="#ffffff" stroke-opacity="0.14" stroke-width="1"/>
<rect x="1011.8" y="332.5" width="2.7" height="235.1" fill="rgb(200,50,50)" fill-opacity="0.92" stroke="#ffffff" stroke-opacity="0.14" stroke-width="1"/>
<rect x="585.4" y="332.5" width="2.7" height="235.1" fill="rgb(200,50,50)" fill-opacity="0.92" stroke="#ffffff" stroke-opacity="0.14" stroke-width="1"/>
<rect x="567.7" y="768.4" width="464.7" height="2.7" fill="rgb(235,235,235)" fill-opacity="0.92" stroke="#ffffff" stroke-opacity="0.14" stroke-width="1"/>
<rect x="567.7" y="128.8" width="464.7" height="2.7" fill="rgb(235,235,235)" fill-opacity="0.92" stroke="#ffffff" stroke-opacity="0.14" stroke-width="1"/>
<rect x="1050.1" y="332.5" width="2.7" height="235.1" fill="rgb(235,235,235)" fill-opacity="0.92" stroke="#ffffff" stroke-opacity="0.14" stroke-width="1"/>
<rect x="547.2" y="332.5" width="2.7" height="235.1" fill="rgb(235,235,235)" fill-opacity="0.92" stroke="#ffffff" stroke-opacity="0.14" stroke-width="1"/>
<rect x="431.0" y="492.4" width="109.3" height="8.2" fill="rgb(90,110,180)" fill-opacity="0.92" stroke="#ffffff" stroke-opacity="0.16" stroke-width="1"/>
<rect x="1028.2" y="172.6" width="8.2" height="8.2" fill="rgb(30,30,30)" fill-opacity="0.92" stroke="#ffffff" stroke-opacity="0.16" stroke-width="1"/>
<rect x="563.6" y="172.6" width="8.2" height="8.2" fill="rgb(30,30,30)" fill-opacity="0.92" stroke="#ffffff" stroke-opacity="0.16" stroke-width="1"/>
<rect x="1028.2" y="719.2" width="8.2" height="8.2" fill="rgb(30,30,30)" fill-opacity="0.92" stroke="#ffffff" stroke-opacity="0.16" stroke-width="1"/>
<rect x="563.6" y="719.2" width="8.2" height="8.2" fill="rgb(30,30,30)" fill-opacity="0.92" stroke="#ffffff" stroke-opacity="0.16" stroke-width="1"/>
<rect x="716.6" y="366.6" width="2.7" height="2.7" fill="rgb(100,70,45)" fill-opacity="0.92" stroke="#ffffff" stroke-opacity="0.18" stroke-width="1"/>
<rect x="771.3" y="366.6" width="2.7" height="2.7" fill="rgb(100,70,45)" fill-opacity="0.92" stroke="#ffffff" stroke-opacity="0.18" stroke-width="1"/>
<rect x="826.0" y="366.6" width="2.7" height="2.7" fill="rgb(100,70,45)" fill-opacity="0.92" stroke="#ffffff" stroke-opacity="0.18" stroke-width="1"/>
<rect x="880.6" y="366.6" width="2.7" height="2.7" fill="rgb(100,70,45)" fill-opacity="0.92" stroke="#ffffff" stroke-opacity="0.18" stroke-width="1"/>
<rect x="716.6" y="489.6" width="2.7" height="2.7" fill="rgb(100,70,45)" fill-opacity="0.92" stroke="#ffffff" stroke-opacity="0.18" stroke-width="1"/>
<rect x="771.3" y="489.6" width="2.7" height="2.7" fill="rgb(100,70,45)" fill-opacity="0.92" stroke="#ffffff" stroke-opacity="0.18" stroke-width="1"/>
<rect x="826.0" y="489.6" width="2.7" height="2.7" fill="rgb(100,70,45)" fill-opacity="0.92" stroke="#ffffff" stroke-opacity="0.18" stroke-width="1"/>
<rect x="880.6" y="489.6" width="2.7" height="2.7" fill="rgb(100,70,45)" fill-opacity="0.92" stroke="#ffffff" stroke-opacity="0.18" stroke-width="1"/>
<rect x="906.6" y="728.1" width="5.5" height="1.4" fill="rgb(255,255,60)" fill-opacity="0.92" stroke="#ffffff" stroke-opacity="0.18" stroke-width="1"/>
<rect x="933.9" y="728.1" width="5.5" height="1.4" fill="rgb(255,255,60)" fill-opacity="0.92" stroke="#ffffff" stroke-opacity="0.18" stroke-width="1"/>
<rect x="961.3" y="728.1" width="5.5" height="1.4" fill="rgb(255,255,60)" fill-opacity="0.92" stroke="#ffffff" stroke-opacity="0.18" stroke-width="1"/>
<rect x="674.3" y="806.7" width="32.8" height="19.1" fill="rgb(150,150,160)" fill-opacity="0.92" stroke="#ffffff" stroke-opacity="0.20" stroke-width="1"/>
<rect x="728.9" y="806.7" width="32.8" height="19.1" fill="rgb(150,150,160)" fill-opacity="0.92" stroke="#ffffff" stroke-opacity="0.20" stroke-width="1"/>
<rect x="783.6" y="806.7" width="32.8" height="19.1" fill="rgb(150,150,160)" fill-opacity="0.92" stroke="#ffffff" stroke-opacity="0.20" stroke-width="1"/>
<rect x="838.3" y="806.7" width="32.8" height="19.1" fill="rgb(150,150,160)" fill-opacity="0.92" stroke="#ffffff" stroke-opacity="0.20" stroke-width="1"/>
<rect x="892.9" y="806.7" width="32.8" height="19.1" fill="rgb(150,150,160)" fill-opacity="0.92" stroke="#ffffff" stroke-opacity="0.20" stroke-width="1"/>
<rect x="431.0" y="484.2" width="109.3" height="8.2" fill="rgb(70,90,160)" fill-opacity="0.92" stroke="#ffffff" stroke-opacity="0.20" stroke-width="1"/>
<rect x="1028.2" y="172.6" width="8.2" height="8.2" fill="rgb(30,30,30)" fill-opacity="0.92" stroke="#ffffff" stroke-opacity="0.20" stroke-width="1"/>
<rect x="563.6" y="172.6" width="8.2" height="8.2" fill="rgb(30,30,30)" fill-opacity="0.92" stroke="#ffffff" stroke-opacity="0.20" stroke-width="1"/>
<rect x="1028.2" y="719.2" width="8.2" height="8.2" fill="rgb(30,30,30)" fill-opacity="0.92" stroke="#ffffff" stroke-opacity="0.20" stroke-width="1"/>
<rect x="563.6" y="719.2" width="8.2" height="8.2" fill="rgb(30,30,30)" fill-opacity="0.92" stroke="#ffffff" stroke-opacity="0.20" stroke-width="1"/>
<rect x="390.0" y="40.0" width="820.0" height="5.5" fill="rgb(120,120,130)" fill-opacity="0.92" stroke="#ffffff" stroke-opacity="0.21" stroke-width="1"/>
<rect x="390.0" y="854.5" width="820.0" height="5.5" fill="rgb(120,120,130)" fill-opacity="0.92" stroke="#ffffff" stroke-opacity="0.21" stroke-width="1"/>
<rect x="1204.5" y="40.0" width="5.5" height="820.0" fill="rgb(120,120,130)" fill-opacity="0.92" stroke="#ffffff" stroke-opacity="0.21" stroke-width="1"/>
<rect x="390.0" y="40.0" width="5.5" height="820.0" fill="rgb(120,120,130)" fill-opacity="0.92" stroke="#ffffff" stroke-opacity="0.21" stroke-width="1"/>
<rect x="1013.2" y="298.3" width="2.7" height="2.7" fill="rgb(255,170,0)" fill-opacity="0.92" stroke="#ffffff" stroke-opacity="0.21" stroke-width="1"/>
<rect x="1048.7" y="298.3" width="2.7" height="2.7" fill="rgb(255,170,0)" fill-opacity="0.92" stroke="#ffffff" stroke-opacity="0.21" stroke-width="1"/>
<rect x="780.9" y="148.0" width="2.7" height="2.7" fill="rgb(255,170,0)" fill-opacity="0.92" stroke="#ffffff" stroke-opacity="0.21" stroke-width="1"/>
<rect x="816.4" y="148.0" width="2.7" height="2.7" fill="rgb(255,170,0)" fill-opacity="0.92" stroke="#ffffff" stroke-opacity="0.21" stroke-width="1"/>
<rect x="548.5" y="599.0" width="2.7" height="2.7" fill="rgb(255,170,0)" fill-opacity="0.92" stroke="#ffffff" stroke-opacity="0.21" stroke-width="1"/>
<rect x="584.1" y="599.0" width="2.7" height="2.7" fill="rgb(255,170,0)" fill-opacity="0.92" stroke="#ffffff" stroke-opacity="0.21" stroke-width="1"/>
<rect x="780.9" y="749.3" width="2.7" height="2.7" fill="rgb(200,40,40)" fill-opacity="0.92" stroke="#ffffff" stroke-opacity="0.23" stroke-width="1"/>
<rect x="816.4" y="749.3" width="2.7" height="2.7" fill="rgb(200,40,40)" fill-opacity="0.92" stroke="#ffffff" stroke-opacity="0.23" stroke-width="1"/>
<rect x="431.0" y="476.0" width="109.3" height="8.2" fill="rgb(90,110,180)" fill-opacity="0.92" stroke="#ffffff" stroke-opacity="0.23" stroke-width="1"/>
<rect x="436.5" y="451.4" width="2.7" height="2.7" fill="rgb(80,80,90)" fill-opacity="0.92" stroke="#ffffff" stroke-opacity="0.25" stroke-width="1"/>
<rect x="484.3" y="451.4" width="2.7" height="2.7" fill="rgb(80,80,90)" fill-opacity="0.92" stroke="#ffffff" stroke-opacity="0.25" stroke-width="1"/>
<rect x="532.1" y="451.4" width="2.7" height="2.7" fill="rgb(80,80,90)" fill-opacity="0.92" stroke="#ffffff" stroke-opacity="0.25" stroke-width="1"/>
<rect x="431.0" y="467.8" width="109.3" height="8.2" fill="rgb(70,90,160)" fill-opacity="0.92" stroke="#ffffff" stroke-opacity="0.26" stroke-width="1"/>
<rect x="635.3" y="777.3" width="1.4" height="1.4" fill="rgb(90,90,95)" fill-opacity="0.92" stroke="#ffffff" stroke-opacity="0.26" stroke-width="1"/>
<rect x="963.3" y="777.3" width="1.4" height="1.4" fill="rgb(90,90,95)" fill-opacity="0.92" stroke="#ffffff" stroke-opacity="0.26" stroke-width="1"/>
<rect x="635.3" y="121.3" width="1.4" height="1.4" fill="rgb(90,90,95)" fill-opacity="0.92" stroke="#ffffff" stroke-opacity="0.26" stroke-width="1"/>
<rect x="963.3" y="121.3" width="1.4" height="1.4" fill="rgb(90,90,95)" fill-opacity="0.92" stroke="#ffffff" stroke-opacity="0.26" stroke-width="1"/>
<rect x="1059.0" y="312.7" width="1.4" height="1.4" fill="rgb(90,90,95)" fill-opacity="0.92" stroke="#ffffff" stroke-opacity="0.26" stroke-width="1"/>
<rect x="539.6" y="586.0" width="1.4" height="1.4" fill="rgb(90,90,95)" fill-opacity="0.92" stroke="#ffffff" stroke-opacity="0.26" stroke-width="1"/>
<rect x="712.5" y="362.5" width="10.9" height="10.9" fill="rgb(50,130,55)" fill-opacity="0.92" stroke="#ffffff" stroke-opacity="0.28" stroke-width="1"/>
<rect x="767.2" y="362.5" width="10.9" height="10.9" fill="rgb(50,130,55)" fill-opacity="0.92" stroke="#ffffff" stroke-opacity="0.28" stroke-width="1"/>
<rect x="821.9" y="362.5" width="10.9" height="10.9" fill="rgb(50,130,55)" fill-opacity="0.92" stroke="#ffffff" stroke-opacity="0.28" stroke-width="1"/>
<rect x="876.5" y="362.5" width="10.9" height="10.9" fill="rgb(50,130,55)" fill-opacity="0.92" stroke="#ffffff" stroke-opacity="0.28" stroke-width="1"/>
<rect x="712.5" y="485.5" width="10.9" height="10.9" fill="rgb(50,130,55)" fill-opacity="0.92" stroke="#ffffff" stroke-opacity="0.28" stroke-width="1"/>
<rect x="767.2" y="485.5" width="10.9" height="10.9" fill="rgb(50,130,55)" fill-opacity="0.92" stroke="#ffffff" stroke-opacity="0.28" stroke-width="1"/>
<rect x="821.9" y="485.5" width="10.9" height="10.9" fill="rgb(50,130,55)" fill-opacity="0.92" stroke="#ffffff" stroke-opacity="0.28" stroke-width="1"/>
<rect x="876.5" y="485.5" width="10.9" height="10.9" fill="rgb(50,130,55)" fill-opacity="0.92" stroke="#ffffff" stroke-opacity="0.28" stroke-width="1"/>
<rect x="672.9" y="805.3" width="35.5" height="21.9" fill="rgb(60,60,70)" fill-opacity="0.92" stroke="#ffffff" stroke-opacity="0.29" stroke-width="1"/>
<rect x="727.6" y="805.3" width="35.5" height="21.9" fill="rgb(60,60,70)" fill-opacity="0.92" stroke="#ffffff" stroke-opacity="0.29" stroke-width="1"/>
<rect x="782.2" y="805.3" width="35.5" height="21.9" fill="rgb(60,60,70)" fill-opacity="0.92" stroke="#ffffff" stroke-opacity="0.29" stroke-width="1"/>
<rect x="836.9" y="805.3" width="35.5" height="21.9" fill="rgb(60,60,70)" fill-opacity="0.92" stroke="#ffffff" stroke-opacity="0.29" stroke-width="1"/>
<rect x="891.6" y="805.3" width="35.5" height="21.9" fill="rgb(60,60,70)" fill-opacity="0.92" stroke="#ffffff" stroke-opacity="0.29" stroke-width="1"/>
<rect x="431.0" y="459.6" width="109.3" height="8.2" fill="rgb(90,110,180)" fill-opacity="0.92" stroke="#ffffff" stroke-opacity="0.30" stroke-width="1"/>
<rect x="1013.2" y="298.3" width="38.3" height="2.7" fill="rgb(255,170,0)" fill-opacity="0.92" stroke="#ffffff" stroke-opacity="0.32" stroke-width="1"/>
<rect x="780.9" y="148.0" width="38.3" height="2.7" fill="rgb(255,170,0)" fill-opacity="0.92" stroke="#ffffff" stroke-opacity="0.32" stroke-width="1"/>
<rect x="548.5" y="599.0" width="38.3" height="2.7" fill="rgb(255,170,0)" fill-opacity="0.92" stroke="#ffffff" stroke-opacity="0.32" stroke-width="1"/>
<rect x="779.5" y="748.6" width="41.0" height="4.1" fill="rgb(200,40,40)" fill-opacity="0.92" stroke="#ffffff" stroke-opacity="0.35" stroke-width="1"/>
<rect x="428.3" y="450.0" width="114.8" height="68.3" fill="rgb(50,50,60)" fill-opacity="0.92" stroke="#ffffff" stroke-opacity="0.38" stroke-width="1"/>
<rect x="633.3" y="776.6" width="5.5" height="2.7" fill="rgb(255,240,180)" fill-opacity="0.92" stroke="#ffffff" stroke-opacity="0.42" stroke-width="1"/>
<rect x="961.3" y="776.6" width="5.5" height="2.7" fill="rgb(255,240,180)" fill-opacity="0.92" stroke="#ffffff" stroke-opacity="0.42" stroke-width="1"/>
<rect x="633.3" y="120.6" width="5.5" height="2.7" fill="rgb(255,240,180)" fill-opacity="0.92" stroke="#ffffff" stroke-opacity="0.42" stroke-width="1"/>
<rect x="961.3" y="120.6" width="5.5" height="2.7" fill="rgb(255,240,180)" fill-opacity="0.92" stroke="#ffffff" stroke-opacity="0.42" stroke-width="1"/>
<rect x="1056.9" y="312.0" width="5.5" height="2.7" fill="rgb(255,240,180)" fill-opacity="0.92" stroke="#ffffff" stroke-opacity="0.42" stroke-width="1"/>
<rect x="537.6" y="585.3" width="5.5" height="2.7" fill="rgb(255,240,180)" fill-opacity="0.92" stroke="#ffffff" stroke-opacity="0.42" stroke-width="1"/>
<text x="40" y="884" font-size="13" fill="#7e8792">racing map — 133 parts · 600 x 600 studs · height -2 to 19 · plan view, rotation not modelled</text>
</svg>